<mxfile host="Electron" modified="2023-05-02T11:02:35.000Z" agent="Mozilla/5.0 (Macintosh; Intel Mac OS X 10_15_7) AppleWebKit/537.36 (KHTML, like Gecko) draw.io/21.2.1 Chrome/112.0.5615.87 Electron/24.1.2 Safari/537.36" etag="Iu3UdeRXPJXcyTvrq-m4" version="21.2.1" type="device">
  <diagram name="Page-1" id="sTeGwQV9_m6BofXgbJ5z">
    <mxGraphModel dx="1485" dy="1192" grid="1" gridSize="10" guides="1" tooltips="1" connect="1" arrows="1" fold="1" page="1" pageScale="1" pageWidth="1169" pageHeight="1654" math="0" shadow="0">
      <root>
        <mxCell id="0" />
        <mxCell id="1" parent="0" />
        <mxCell id="prbf6PAcEB-vE0bwNeir-24" value="" style="shape=parallelogram;perimeter=parallelogramPerimeter;whiteSpace=wrap;html=1;fixedSize=1;size=10;rounded=1;sketch=1;curveFitting=1;jiggle=2;fontSize=11;strokeWidth=1;fillColor=#dae8fc;strokeColor=#6c8ebf;fillStyle=solid;arcSize=14;" parent="1" vertex="1">
          <mxGeometry x="319" y="419" width="110" height="41.52" as="geometry" />
        </mxCell>
        <mxCell id="prbf6PAcEB-vE0bwNeir-25" value="" style="shape=parallelogram;perimeter=parallelogramPerimeter;whiteSpace=wrap;html=1;fixedSize=1;size=10;rounded=1;sketch=1;curveFitting=1;jiggle=2;fontSize=11;strokeWidth=1;fillColor=#dae8fc;strokeColor=#6c8ebf;fillStyle=solid;arcSize=14;" parent="1" vertex="1">
          <mxGeometry x="329" y="429" width="110" height="41.52" as="geometry" />
        </mxCell>
        <mxCell id="prbf6PAcEB-vE0bwNeir-26" value="" style="shape=parallelogram;perimeter=parallelogramPerimeter;whiteSpace=wrap;html=1;fixedSize=1;size=10;rounded=1;sketch=1;curveFitting=1;jiggle=2;fontSize=11;strokeWidth=1;fillColor=#dae8fc;strokeColor=#6c8ebf;fillStyle=solid;arcSize=14;" parent="1" vertex="1">
          <mxGeometry x="339" y="439" width="110" height="41.52" as="geometry" />
        </mxCell>
        <mxCell id="z99PI1cJXAMRWRogK8VI-193" value="" style="ellipse;shape=cloud;whiteSpace=wrap;html=1;fillColor=none;strokeColor=#EA6B66;fontSize=16;sketch=1;curveFitting=1;jiggle=2;fontFamily=Verdana;labelPosition=center;verticalLabelPosition=middle;align=center;verticalAlign=middle;" parent="1" vertex="1">
          <mxGeometry x="60" y="60" width="560" height="259.86" as="geometry" />
        </mxCell>
        <mxCell id="prbf6PAcEB-vE0bwNeir-15" value="" style="ellipse;shape=cloud;whiteSpace=wrap;html=1;" parent="1" vertex="1">
          <mxGeometry x="360" y="70" width="350" height="180" as="geometry" />
        </mxCell>
        <mxCell id="vNXa2KsQY14kPwiRae87-1" value="Casa" style="rounded=1;whiteSpace=wrap;html=1;align=left;spacingLeft=12;spacingTop=7;spacing=0;fontSize=14;fillColor=none;strokeColor=#82b366;verticalAlign=top;arcSize=0;strokeWidth=1;fontFamily=Verdana;sketch=1;curveFitting=1;jiggle=2;shadow=0;glass=0;fillStyle=auto;" parent="1" vertex="1">
          <mxGeometry x="90" y="340.58" width="610" height="339.42" as="geometry" />
        </mxCell>
        <mxCell id="pu2SGln_cWuoecxfrxfS-4" value="&lt;div style=&quot;font-size: 10px;&quot;&gt;&lt;span style=&quot;font-family: &amp;quot;Courier New&amp;quot;; background-color: initial; font-size: 10px;&quot;&gt;git.tudominio.com&lt;/span&gt;&lt;br style=&quot;font-size: 10px;&quot;&gt;&lt;/div&gt;&lt;div style=&quot;font-size: 10px;&quot;&gt;&lt;span style=&quot;font-family: &amp;quot;Courier New&amp;quot;; background-color: initial; font-size: 10px;&quot;&gt;grafana.tudominio.com&lt;/span&gt;&lt;/div&gt;&lt;div style=&quot;font-size: 10px;&quot;&gt;&lt;span style=&quot;font-family: &amp;quot;Courier New&amp;quot;; background-color: initial; font-size: 10px;&quot;&gt;ha.tudominio.com&lt;/span&gt;&lt;/div&gt;&lt;div style=&quot;font-size: 10px;&quot;&gt;&lt;span style=&quot;font-family: &amp;quot;Courier New&amp;quot;; background-color: initial; font-size: 10px;&quot;&gt;:&lt;/span&gt;&lt;/div&gt;&lt;div style=&quot;font-size: 10px;&quot;&gt;&lt;span style=&quot;font-family: &amp;quot;Courier New&amp;quot;; background-color: initial; font-size: 10px;&quot;&gt;vm-git.tudominio.com&lt;/span&gt;&lt;br style=&quot;font-size: 10px;&quot;&gt;&lt;/div&gt;&lt;div style=&quot;font-size: 10px;&quot;&gt;&lt;font face=&quot;Courier New&quot; style=&quot;font-size: 10px;&quot;&gt;vm-grafana.tudominio.com&lt;/font&gt;&lt;/div&gt;&lt;div style=&quot;font-size: 10px;&quot;&gt;&lt;font face=&quot;Courier New&quot; style=&quot;font-size: 10px;&quot;&gt;&lt;div style=&quot;font-size: 10px;&quot;&gt;vm-ha.tudominio.com&lt;/div&gt;&lt;/font&gt;&lt;/div&gt;" style="shape=parallelogram;perimeter=parallelogramPerimeter;whiteSpace=wrap;html=1;fixedSize=1;size=0;rounded=1;fontSize=10;strokeWidth=0.6;labelPosition=center;verticalLabelPosition=middle;align=left;verticalAlign=middle;" parent="1" vertex="1">
          <mxGeometry x="526" y="370" width="158" height="90" as="geometry" />
        </mxCell>
        <mxCell id="pu2SGln_cWuoecxfrxfS-7" value="Cliente desde&lt;br&gt;&amp;nbsp;Internet" style="shape=parallelogram;perimeter=parallelogramPerimeter;whiteSpace=wrap;html=1;fixedSize=1;size=10;rounded=1;sketch=1;curveFitting=1;jiggle=2;fontSize=11;strokeWidth=1;fillColor=#F2FFF2;strokeColor=#82b366;fillStyle=solid;arcSize=14;" parent="1" vertex="1">
          <mxGeometry x="225" y="132.24" width="110" height="41.52" as="geometry" />
        </mxCell>
        <mxCell id="pu2SGln_cWuoecxfrxfS-9" value="&lt;div style=&quot;border-color: var(--border-color); color: rgb(0, 0, 0); font-size: 10px; font-style: normal; font-variant-ligatures: normal; font-variant-caps: normal; font-weight: 400; letter-spacing: normal; orphans: 2; text-indent: 0px; text-transform: none; widows: 2; word-spacing: 0px; -webkit-text-stroke-width: 0px; background-color: rgb(251, 251, 251); text-decoration-thickness: initial; text-decoration-style: initial; text-decoration-color: initial;&quot;&gt;&lt;/div&gt;&lt;font style=&quot;font-size: 11px;&quot;&gt;Resolución DNS en Internet: &lt;br&gt;Mis nombres resuelven a la misma IP Pública de mi casa&lt;/font&gt;" style="text;whiteSpace=wrap;html=1;fontSize=10;align=right;fontFamily=Verdana;" parent="1" vertex="1">
          <mxGeometry x="460" y="116" width="190" height="50" as="geometry" />
        </mxCell>
        <mxCell id="N-YsOx6hFJ3Ofn1LLEE7-2" style="edgeStyle=orthogonalEdgeStyle;rounded=0;orthogonalLoop=1;jettySize=auto;html=1;exitX=0.5;exitY=1;exitDx=0;exitDy=0;entryX=0;entryY=0.5;entryDx=0;entryDy=0;" parent="1" source="pu2SGln_cWuoecxfrxfS-16" target="pu2SGln_cWuoecxfrxfS-17" edge="1">
          <mxGeometry relative="1" as="geometry" />
        </mxCell>
        <mxCell id="N-YsOx6hFJ3Ofn1LLEE7-4" style="edgeStyle=orthogonalEdgeStyle;rounded=0;orthogonalLoop=1;jettySize=auto;html=1;exitX=0.5;exitY=1;exitDx=0;exitDy=0;entryX=0;entryY=0.5;entryDx=0;entryDy=0;" parent="1" source="pu2SGln_cWuoecxfrxfS-16" target="pu2SGln_cWuoecxfrxfS-22" edge="1">
          <mxGeometry relative="1" as="geometry" />
        </mxCell>
        <mxCell id="N-YsOx6hFJ3Ofn1LLEE7-6" style="edgeStyle=orthogonalEdgeStyle;rounded=0;orthogonalLoop=1;jettySize=auto;html=1;entryX=0;entryY=0.5;entryDx=0;entryDy=0;exitX=0.5;exitY=1;exitDx=0;exitDy=0;" parent="1" source="pu2SGln_cWuoecxfrxfS-16" target="pu2SGln_cWuoecxfrxfS-23" edge="1">
          <mxGeometry relative="1" as="geometry" />
        </mxCell>
        <mxCell id="pu2SGln_cWuoecxfrxfS-16" value="&lt;span style=&quot;border-color: var(--border-color); font-size: 9px; text-align: left; background-color: initial;&quot;&gt;&lt;font style=&quot;border-color: var(--border-color); font-size: 9px;&quot; face=&quot;Courier New&quot;&gt;Nginx Proxy Manager&lt;br&gt;&lt;b style=&quot;border-color: var(--border-color);&quot;&gt;https://ha.tudominio.com:443&lt;br&gt;&lt;/b&gt;&lt;b style=&quot;border-color: var(--border-color);&quot;&gt;https://git.tudominio.com:443&lt;br&gt;git@git.tudominio.com (22)&lt;br&gt;&lt;/b&gt;&lt;b style=&quot;border-color: var(--border-color);&quot;&gt;https://grafana.tudominio.com:48123&lt;/b&gt;&lt;br&gt;&lt;/font&gt;&lt;/span&gt;" style="rounded=1;whiteSpace=wrap;html=1;sketch=1;curveFitting=1;jiggle=2;fillColor=#FFFBF0;strokeColor=#d6b656;fillStyle=solid;fontSize=9;" parent="1" vertex="1">
          <mxGeometry x="119" y="496.58000000000004" width="200" height="73.42" as="geometry" />
        </mxCell>
        <mxCell id="pu2SGln_cWuoecxfrxfS-17" value="&lt;span style=&quot;border-color: var(--border-color); font-size: 9px; text-align: left; background-color: initial;&quot;&gt;&lt;font style=&quot;border-color: var(--border-color); font-size: 9px;&quot; face=&quot;Courier New&quot;&gt;Home Assistant&lt;br&gt;&lt;b&gt;http://vm-ha.tudominio.com:8123&lt;/b&gt;&lt;/font&gt;&lt;/span&gt;" style="rounded=1;whiteSpace=wrap;html=1;sketch=1;curveFitting=1;jiggle=2;fillColor=#E6FDFF;strokeColor=#00CCCC;fillStyle=solid;fontSize=9;" parent="1" vertex="1">
          <mxGeometry x="459" y="575" width="201" height="30" as="geometry" />
        </mxCell>
        <mxCell id="pu2SGln_cWuoecxfrxfS-18" value="Clientes desde&lt;br&gt;&amp;nbsp;Intranet" style="shape=parallelogram;perimeter=parallelogramPerimeter;whiteSpace=wrap;html=1;fixedSize=1;size=10;rounded=1;sketch=1;curveFitting=1;jiggle=2;fontSize=11;strokeWidth=1;fillColor=#dae8fc;strokeColor=#6c8ebf;fillStyle=solid;arcSize=14;" parent="1" vertex="1">
          <mxGeometry x="349" y="450.52" width="110" height="41.52" as="geometry" />
        </mxCell>
        <mxCell id="pu2SGln_cWuoecxfrxfS-19" value="" style="endArrow=classicThin;html=1;curved=1;strokeColor=#3333FF;strokeWidth=2;sketch=1;curveFitting=1;jiggle=1;exitX=0.5;exitY=1;exitDx=0;exitDy=0;startArrow=classicThin;startFill=1;endFill=1;entryX=1;entryY=0.5;entryDx=0;entryDy=0;" parent="1" source="prbf6PAcEB-vE0bwNeir-3" target="pu2SGln_cWuoecxfrxfS-18" edge="1">
          <mxGeometry width="50" height="50" relative="1" as="geometry">
            <mxPoint x="485" y="401.5799999999999" as="sourcePoint" />
            <mxPoint x="430" y="461" as="targetPoint" />
            <Array as="points">
              <mxPoint x="485" y="440" />
            </Array>
          </mxGeometry>
        </mxCell>
        <mxCell id="pu2SGln_cWuoecxfrxfS-21" value="" style="endArrow=none;html=1;entryX=0;entryY=0.25;entryDx=0;entryDy=0;curved=1;strokeColor=#3333FF;strokeWidth=2;sketch=1;curveFitting=1;jiggle=1;startArrow=classicThin;startFill=1;exitX=0.5;exitY=0;exitDx=0;exitDy=0;" parent="1" source="pu2SGln_cWuoecxfrxfS-16" target="pu2SGln_cWuoecxfrxfS-18" edge="1">
          <mxGeometry width="50" height="50" relative="1" as="geometry">
            <mxPoint x="191" y="450" as="sourcePoint" />
            <mxPoint x="454" y="540" as="targetPoint" />
            <Array as="points">
              <mxPoint x="310" y="461" />
            </Array>
          </mxGeometry>
        </mxCell>
        <mxCell id="pu2SGln_cWuoecxfrxfS-22" value="&lt;span style=&quot;border-color: var(--border-color); font-size: 9px; text-align: left; background-color: initial;&quot;&gt;&lt;font style=&quot;border-color: var(--border-color); font-size: 9px;&quot; face=&quot;Courier New&quot;&gt;Gitea&lt;br&gt;&lt;b&gt;http://vm-git.tudominio.com:443&lt;/b&gt;&lt;/font&gt;&lt;/span&gt;" style="rounded=1;whiteSpace=wrap;html=1;sketch=1;curveFitting=1;jiggle=2;fillColor=#E6FDFF;strokeColor=#00CCCC;fillStyle=solid;fontSize=9;" parent="1" vertex="1">
          <mxGeometry x="450" y="604" width="200" height="30" as="geometry" />
        </mxCell>
        <mxCell id="pu2SGln_cWuoecxfrxfS-23" value="&lt;span style=&quot;border-color: var(--border-color); font-size: 9px; text-align: left; background-color: initial;&quot;&gt;&lt;font style=&quot;border-color: var(--border-color); font-size: 9px;&quot; face=&quot;Courier New&quot;&gt;Grafana&lt;br&gt;&lt;b&gt;http://vm-grafana.tudominio.com:3000&lt;/b&gt;&lt;/font&gt;&lt;/span&gt;" style="rounded=1;whiteSpace=wrap;html=1;sketch=1;curveFitting=1;jiggle=2;fillColor=#E6FDFF;strokeColor=#00CCCC;fillStyle=solid;fontSize=9;" parent="1" vertex="1">
          <mxGeometry x="470" y="633" width="210" height="30" as="geometry" />
        </mxCell>
        <mxCell id="pu2SGln_cWuoecxfrxfS-30" value="&lt;div style=&quot;border-color: var(--border-color); color: rgb(0, 0, 0); font-size: 9px; font-style: normal; font-variant-ligatures: normal; font-variant-caps: normal; font-weight: 400; letter-spacing: normal; orphans: 2; text-indent: 0px; text-transform: none; widows: 2; word-spacing: 0px; -webkit-text-stroke-width: 0px; background-color: rgb(251, 251, 251); text-decoration-thickness: initial; text-decoration-style: initial; text-decoration-color: initial;&quot;&gt;&lt;/div&gt;&lt;font style=&quot;font-size: 9px;&quot;&gt;En PiHole resuelvo &lt;font face=&quot;Courier New&quot;&gt;tudominio.com&lt;/font&gt;&lt;br&gt;con IP&#39;s internas privadas&lt;br style=&quot;font-size: 9px;&quot;&gt;&lt;br style=&quot;font-size: 9px;&quot;&gt;&lt;br style=&quot;font-size: 9px;&quot;&gt;&lt;/font&gt;" style="text;whiteSpace=wrap;html=1;fontSize=9;align=center;fontFamily=Verdana;" parent="1" vertex="1">
          <mxGeometry x="527" y="470" width="143" height="46.58" as="geometry" />
        </mxCell>
        <mxCell id="oq7CgVc_mKagQm36tLaV-16" value="" style="endArrow=none;html=1;entryX=0.5;entryY=1;entryDx=0;entryDy=0;curved=1;strokeColor=#990000;strokeWidth=2;sketch=1;curveFitting=1;jiggle=1;exitX=0.5;exitY=0;exitDx=0;exitDy=0;startArrow=classicThin;startFill=1;" parent="1" source="oq7CgVc_mKagQm36tLaV-17" target="pu2SGln_cWuoecxfrxfS-7" edge="1">
          <mxGeometry width="50" height="50" relative="1" as="geometry">
            <mxPoint x="191" y="450" as="sourcePoint" />
            <mxPoint x="216" y="182" as="targetPoint" />
            <Array as="points">
              <mxPoint x="240" y="210" />
            </Array>
          </mxGeometry>
        </mxCell>
        <mxCell id="prbf6PAcEB-vE0bwNeir-1" value="" style="group" parent="1" vertex="1" connectable="0">
          <mxGeometry x="447" y="347.42" width="80" height="53.71" as="geometry" />
        </mxCell>
        <mxCell id="prbf6PAcEB-vE0bwNeir-2" value="" style="shape=image;verticalLabelPosition=bottom;labelBackgroundColor=default;verticalAlign=top;aspect=fixed;imageAspect=0;image=data:image/svg+xml,PHN2ZyB4bWxucz0iaHR0cDovL3d3dy53My5vcmcvMjAwMC9zdmciIHZpZXdCb3g9IjAgMCAxNTAgMTUwIiB2ZXJzaW9uPSIxLjEiIHdpZHRoPSIxMDAlIiBzdHlsZT0iZmlsbC1ydWxlOmV2ZW5vZGQ7Y2xpcC1ydWxlOmV2ZW5vZGQ7c3Ryb2tlLWxpbmVjYXA6cm91bmQ7c3Ryb2tlLWxpbmVqb2luOnJvdW5kOyIgaGVpZ2h0PSIxMDAlIj4mI3hhOyAgPGRlZnM+JiN4YTsgICAgJiN4YTsgIDwvZGVmcz4mI3hhOyAgPHJlY3QgeT0iMTUiIHg9IjE1IiBzdHlsZT0iZmlsbDogbm9uZTsgc3Ryb2tlLXdpZHRoOiAwLjJweDsgc3Ryb2tlOiByZ2IoODQsIDg0LCA4NCk7IHBvaW50ZXItZXZlbnRzOiBub25lOyB2aXNpYmlsaXR5OiBoaWRkZW47IiBoZWlnaHQ9IjEyMCIgd2lkdGg9IjEyMCIvPiYjeGE7ICA8ZyB0cmFuc2Zvcm09Im1hdHJpeCgwLjI1OTE3OSwgMCwgMCwgMC4yNTkxNzksIDE2LjM0MzkzOSwgMTUpIiBzdHlsZT0iIj4mI3hhOyAgICA8cGF0aCBkPSJtNDYzLDIzLjVjMC0xMi45NTgtMTAuNTQyLTIzLjUtMjMuNS0yMy41aC0xOTJjLTYuMTc3LDAtMTEuODAxLDIuMzk5LTE2LDYuMzEtNC4xOTktMy45MTEtOS44MjMtNi4zMS0xNi02LjMxaC0xOTJjLTEyLjk1OCwwLTIzLjUsMTAuNTQyLTIzLjUsMjMuNXYxOTJjMCw2LjE3NyAyLjM5OSwxMS44MDEgNi4zMSwxNi0zLjkxMSw0LjE5OS02LjMxLDkuODIzLTYuMzEsMTZ2MTkyYzAsMTIuOTU4IDEwLjU0MiwyMy41IDIzLjUsMjMuNWgxOTJjNi4xNzcsMCAxMS44MDEtMi4zOTkgMTYtNi4zMSA0LjE5OSwzLjkxMSA5LjgyMyw2LjMxIDE2LDYuMzFoMTkyYzEyLjk1OCwwIDIzLjUtMTAuNTQyIDIzLjUtMjMuNXYtMTkyYzAtNi4xNzctMi4zOTktMTEuODAxLTYuMzEtMTYgMy45MTEtNC4xOTkgNi4zMS05LjgyMyA2LjMxLTE2di0xOTJ6bS0yMTUuNS04LjVoMTkyYzQuNjg3LDAgOC41LDMuODEzIDguNSw4LjV2MTkyYzAsNC42ODctMy44MTMsOC41LTguNSw4LjVoLTY1LjA2MmMtNC4xMDIsMC03LjQzOC0zLjMzNy03LjQzOC03LjQzOHYtMy43MjVjMC0yLjQ0MiAxLjM3OC00LjgxMSAzLjc4MS02LjQ5OCAxNS4xOTYtMTAuNjc0IDIyLjY2OC0yOC43NTggMTkuNS00Ny4xOTUtMy4yNDQtMTguODgxLTE3Ljk2MS0zNC4xODYtMzYuNjI0LTM4LjA4NC0xNC4zMjMtMi45OTItMjguOTQsMC40OTUtNDAuMDk4LDkuNTYzLTExLjE1OSw5LjA2OS0xNy41NTksMjIuNTExLTE3LjU1OSwzNi44NzcgMCwxNS41NjUgNy42NjUsMzAuMTU4IDIwLjUwNCwzOS4wMzcgMi4yMjIsMS41MzYgMy40OTYsMy44MTIgMy40OTYsNi4yNDR2My43OGMwLDQuMTAyLTMuMzM3LDcuNDM4LTcuNDM4LDcuNDM4aC03My41NjJ2LTczLjU2MmMwLTEyLjM3Mi0xMC4wNjUtMjIuNDM3LTIyLjQzOC0yMi40MzdoLTMuNzhjLTcuMzIsMC0xNC4yNjcsMy43MjUtMTguNTgyLDkuOTY0LTYuMDc4LDguNzg5LTE2LjA1OSwxNC4wMzYtMjYuNywxNC4wMzYtOS44MywwLTE5LjAyOC00LjM4MS0yNS4yMzctMTIuMDIxLTYuMjk5LTcuNzUtOC42MTQtMTcuNTQyLTYuNTItMjcuNTcxIDIuNjA4LTEyLjQ4OSAxMy4yNzUtMjIuNzMxIDI1Ljk0LTI0LjkwNiAxMi42NjgtMi4xNzkgMjUuMDczLDIuOTM3IDMyLjM3OSwxMy4zMzkgNC41MzYsNi40NTYgMTEuMzc4LDEwLjE1OSAxOC43NzQsMTAuMTU5aDMuNzI2YzEyLjM3MywwIDIyLjQzOC0xMC4wNjUgMjIuNDM4LTIyLjQzOHYtNjUuMDYyYzAtNC42ODcgMy44MTMtOC41IDguNS04LjV6bS0yMzIuNSw4LjVjMC00LjY4NyAzLjgxMy04LjUgOC41LTguNWgxOTJjNC42ODcsMCA4LjUsMy44MTMgOC41LDguNXY2NS4wNjJjMCw0LjEwMi0zLjMzNiw3LjQzOC03LjQzOCw3LjQzOGgtMy43MjZjLTIuNDQyLDAtNC44MTEtMS4zNzgtNi40OTgtMy43OC0xMC42NzMtMTUuMTk2LTI4Ljc1My0yMi42NzMtNDcuMTk0LTE5LjUwMS0xOC44ODIsMy4yNDItMzQuMTg3LDE3Ljk2LTM4LjA4NSwzNi42MjMtMi45OTIsMTQuMzI1IDAuNDk0LDI4Ljk0IDkuNTYzLDQwLjA5OSA5LjA3LDExLjE1OSAyMi41MTEsMTcuNTU5IDM2Ljg3OCwxNy41NTkgMTUuNTY1LDAgMzAuMTU5LTcuNjY1IDM5LjAzNy0yMC41MDQgMS41MzctMi4yMjIgMy44MTMtMy40OTYgNi4yNDUtMy40OTZoMy43OGM0LjEwMiwwIDcuNDM4LDMuMzM3IDcuNDM4LDcuNDM4djczLjU2MmgtNzMuNTYyYy0xMi4zNzMsMC0yMi40MzgsMTAuMDY1LTIyLjQzOCwyMi40Mzh2My43OGMwLDcuMzIxIDMuNzI1LDE0LjI2OCA5Ljk2NCwxOC41ODIgOC43ODksNi4wNzggMTQuMDM2LDE2LjA1OSAxNC4wMzYsMjYuNyAwLDkuODMtNC4zODEsMTkuMDI5LTEyLjAyMSwyNS4yMzctNy43NSw2LjI5OC0xNy41NDEsOC42MTUtMjcuNTcyLDYuNTE5LTEyLjQ4OC0yLjYwNy0yMi43My0xMy4yNzQtMjQuOTA2LTI1Ljk0LTIuMTc1LTEyLjY2NSAyLjkzNi0yNS4wNzIgMTMuMzM5LTMyLjM3OSA2LjQ1Ni00LjUzNSAxMC4xNTktMTEuMzc4IDEwLjE1OS0xOC43NzN2LTMuNzI1YzAuMDAxLTEyLjM3NC0xMC4wNjQtMjIuNDM5LTIyLjQzNy0yMi40MzloLTY1LjA2MmMtNC42ODcsMC04LjUtMy44MTMtOC41LTguNXYtMTkyem0yMDAuNSw0MjQuNWgtMTkyYy00LjY4NywwLTguNS0zLjgxMy04LjUtOC41di0xOTJjMC00LjY4NyAzLjgxMy04LjUgOC41LTguNWg2NS4wNjJjNC4xMDIsMCA3LjQzOCwzLjMzNyA3LjQzOCw3LjQzOHYzLjcyNWMwLDIuNDQyLTEuMzc4LDQuODExLTMuNzgxLDYuNDk4LTE1LjE5NiwxMC42NzQtMjIuNjY4LDI4Ljc1Ny0xOS41MDEsNDcuMTkzIDMuMjQ0LDE4Ljg4MyAxNy45NjIsMzQuMTg4IDM2LjYyMywzOC4wODUgMy4zNjQsMC43MDIgNi43NDIsMS4wNDggMTAuMDg5LDEuMDQ4IDEwLjkwOCwwIDIxLjQ3MS0zLjY3IDMwLjAwOS0xMC42MDkgMTEuMTYxLTkuMDY5IDE3LjU2MS0yMi41MTEgMTcuNTYxLTM2Ljg3OCAwLTE1LjU2NS03LjY2Ni0zMC4xNTktMjAuNTA1LTM5LjAzNy0yLjIyMS0xLjUzNi0zLjQ5NS0zLjgxMi0zLjQ5NS02LjI0NHYtMy43OGMwLTQuMTAyIDMuMzM2LTcuNDM4IDcuNDM4LTcuNDM4aDczLjU2MnY3My41NjJjMCwxMi4zNzIgMTAuMDY2LDIyLjQzNyAyMi40MzgsMjIuNDM3aDMuNzI1YzcuMzk2LDAgMTQuMjM5LTMuNzAzIDE4Ljc3My0xMC4xNiA3LjMwOC0xMC40MDMgMTkuNzE0LTE1LjUxMyAzMi4zOC0xMy4zMzggMTIuNjY2LDIuMTc2IDIzLjMzMywxMi40MTggMjUuOTQsMjQuOTA3IDIuMDk1LDEwLjAyOS0wLjIyMSwxOS44MjEtNi41MiwyNy41NzEtNi4yMDgsNy42MzktMTUuNDA2LDEyLjAyLTI1LjIzNiwxMi4wMi0xMC42NDEsMC0yMC42MjItNS4yNDctMjYuNy0xNC4wMzctNC4zMTUtNi4yMzgtMTEuMjYxLTkuOTYzLTE4LjU4Mi05Ljk2M2gtMy43OGMtMTIuMzcyLDAtMjIuNDM4LDEwLjA2NS0yMi40MzgsMjIuNDM4djY1LjA2MmMwLDQuNjg3LTMuODEzLDguNS04LjUsOC41em0yMzIuNS04LjVjMCw0LjY4Ny0zLjgxMyw4LjUtOC41LDguNWgtMTkyYy00LjY4NywwLTguNS0zLjgxMy04LjUtOC41di02NS4wNjJjMC00LjEwMiAzLjMzNy03LjQzOCA3LjQzOC03LjQzOGgzLjc4YzIuNDMyLDAgNC43MDgsMS4yNzQgNi4yNDQsMy40OTUgOC44NzksMTIuODQgMjMuNDczLDIwLjUwNSAzOS4wMzgsMjAuNTA1IDE0LjM2NiwwIDI3LjgwOC02LjQgMzYuODc3LTE3LjU2IDkuMDY5LTExLjE1NyAxMi41NTQtMjUuNzcyIDkuNTYzLTQwLjA5OC0zLjg5Ny0xOC42NjItMTkuMjAxLTMzLjM4LTM4LjA4My0zNi42MjQtMTguNDM5LTMuMTc2LTM2LjUyMSw0LjMwNC00Ny4xOTUsMTkuNS0xLjY4OCwyLjQwMy00LjA1NiwzLjc4MS02LjQ5OSwzLjc4MWgtMy43MjVjLTQuMTAyLDAtNy40MzgtMy4zMzctNy40MzgtNy40Mzh2LTczLjU2MWg3My41NjJjMTIuMzcyLDAgMjIuNDM4LTEwLjA2NSAyMi40MzgtMjIuNDM4di0zLjc4YzAtNy4zMjEtMy43MjUtMTQuMjY4LTkuOTY0LTE4LjU4Mi04Ljc4OS02LjA3OC0xNC4wMzYtMTYuMDU5LTE0LjAzNi0yNi43IDAtOS44MyA0LjM4MS0xOS4wMjggMTIuMDItMjUuMjM2IDcuNzUtNi4zIDE3LjU0My04LjYxNCAyNy41NzEtNi41MjEgMTIuNDg5LDIuNjA4IDIyLjczMSwxMy4yNzUgMjQuOTA3LDI1Ljk0IDIuMTc2LDEyLjY2NS0yLjkzNSwyNS4wNzMtMTMuMzM5LDMyLjM4LTYuNDU2LDQuNTM2LTEwLjE1OSwxMS4zNzgtMTAuMTU5LDE4Ljc3NHYzLjcyNWMwLDEyLjM3MyAxMC4wNjYsMjIuNDM4IDIyLjQzOCwyMi40MzhoNjUuMDYyYzQuNjg3LDAgOC41LDMuODEzIDguNSw4LjV2MTkyeiIvPiYjeGE7ICA8L2c+JiN4YTs8L3N2Zz4=;" parent="prbf6PAcEB-vE0bwNeir-1" vertex="1">
          <mxGeometry x="22.857142857142854" width="34.282978723404256" height="34.282978723404256" as="geometry" />
        </mxCell>
        <mxCell id="prbf6PAcEB-vE0bwNeir-3" value="&lt;div style=&quot;font-size: 7px;&quot;&gt;&lt;font style=&quot;font-size: 7px;&quot; face=&quot;Courier New&quot;&gt;&lt;b&gt;DNS Pihole&lt;/b&gt;&lt;/font&gt;&lt;/div&gt;&lt;div style=&quot;font-size: 7px;&quot;&gt;&lt;span style=&quot;font-family: &amp;quot;Courier New&amp;quot;; background-color: initial;&quot;&gt;192.168.100.224&lt;/span&gt;&lt;br&gt;&lt;/div&gt;" style="rounded=1;whiteSpace=wrap;html=1;fontSize=7;sketch=1;curveFitting=1;jiggle=1;strokeWidth=0.5;" parent="prbf6PAcEB-vE0bwNeir-1" vertex="1">
          <mxGeometry y="30.85468085106383" width="80" height="22.85531914893617" as="geometry" />
        </mxCell>
        <mxCell id="prbf6PAcEB-vE0bwNeir-12" value="" style="group" parent="1" vertex="1" connectable="0">
          <mxGeometry x="430" y="70" width="60" height="57" as="geometry" />
        </mxCell>
        <mxCell id="prbf6PAcEB-vE0bwNeir-13" value="&lt;div style=&quot;font-size: 7px;&quot;&gt;&lt;font style=&quot;font-size: 7px;&quot; face=&quot;Courier New&quot;&gt;&lt;b&gt;Servidores root DNS&lt;/b&gt;&lt;/font&gt;&lt;/div&gt;" style="rounded=1;whiteSpace=wrap;html=1;fontSize=7;sketch=1;curveFitting=1;jiggle=1;strokeWidth=0.5;" parent="prbf6PAcEB-vE0bwNeir-12" vertex="1">
          <mxGeometry y="27" width="60" height="23" as="geometry" />
        </mxCell>
        <mxCell id="prbf6PAcEB-vE0bwNeir-14" value="" style="shape=image;verticalLabelPosition=bottom;labelBackgroundColor=default;verticalAlign=top;aspect=fixed;imageAspect=0;image=data:image/svg+xml,PHN2ZyB4bWxucz0iaHR0cDovL3d3dy53My5vcmcvMjAwMC9zdmciIHZpZXdCb3g9IjAgMCAxNTAgMTUwIiB2ZXJzaW9uPSIxLjEiIHdpZHRoPSIxMDAlIiBzdHlsZT0iZmlsbC1ydWxlOmV2ZW5vZGQ7Y2xpcC1ydWxlOmV2ZW5vZGQ7c3Ryb2tlLWxpbmVjYXA6cm91bmQ7c3Ryb2tlLWxpbmVqb2luOnJvdW5kOyIgaGVpZ2h0PSIxMDAlIj4mI3hhOyAgPGRlZnM+JiN4YTsgICAgJiN4YTsgIDwvZGVmcz4mI3hhOyAgPHJlY3QgeT0iMTUiIHg9IjE1IiBzdHlsZT0iZmlsbDogbm9uZTsgc3Ryb2tlLXdpZHRoOiAwLjJweDsgc3Ryb2tlOiByZ2IoODQsIDg0LCA4NCk7IHBvaW50ZXItZXZlbnRzOiBub25lOyB2aXNpYmlsaXR5OiBoaWRkZW47IiBoZWlnaHQ9IjEyMCIgd2lkdGg9IjEyMCIvPiYjeGE7ICA8ZyB0cmFuc2Zvcm09Im1hdHJpeCgwLjI1OTE3OSwgMCwgMCwgMC4yNTkxNzksIDE2LjM0MzkzOSwgMTUpIiBzdHlsZT0iIj4mI3hhOyAgICA8cGF0aCBkPSJtNDYzLDIzLjVjMC0xMi45NTgtMTAuNTQyLTIzLjUtMjMuNS0yMy41aC0xOTJjLTYuMTc3LDAtMTEuODAxLDIuMzk5LTE2LDYuMzEtNC4xOTktMy45MTEtOS44MjMtNi4zMS0xNi02LjMxaC0xOTJjLTEyLjk1OCwwLTIzLjUsMTAuNTQyLTIzLjUsMjMuNXYxOTJjMCw2LjE3NyAyLjM5OSwxMS44MDEgNi4zMSwxNi0zLjkxMSw0LjE5OS02LjMxLDkuODIzLTYuMzEsMTZ2MTkyYzAsMTIuOTU4IDEwLjU0MiwyMy41IDIzLjUsMjMuNWgxOTJjNi4xNzcsMCAxMS44MDEtMi4zOTkgMTYtNi4zMSA0LjE5OSwzLjkxMSA5LjgyMyw2LjMxIDE2LDYuMzFoMTkyYzEyLjk1OCwwIDIzLjUtMTAuNTQyIDIzLjUtMjMuNXYtMTkyYzAtNi4xNzctMi4zOTktMTEuODAxLTYuMzEtMTYgMy45MTEtNC4xOTkgNi4zMS05LjgyMyA2LjMxLTE2di0xOTJ6bS0yMTUuNS04LjVoMTkyYzQuNjg3LDAgOC41LDMuODEzIDguNSw4LjV2MTkyYzAsNC42ODctMy44MTMsOC41LTguNSw4LjVoLTY1LjA2MmMtNC4xMDIsMC03LjQzOC0zLjMzNy03LjQzOC03LjQzOHYtMy43MjVjMC0yLjQ0MiAxLjM3OC00LjgxMSAzLjc4MS02LjQ5OCAxNS4xOTYtMTAuNjc0IDIyLjY2OC0yOC43NTggMTkuNS00Ny4xOTUtMy4yNDQtMTguODgxLTE3Ljk2MS0zNC4xODYtMzYuNjI0LTM4LjA4NC0xNC4zMjMtMi45OTItMjguOTQsMC40OTUtNDAuMDk4LDkuNTYzLTExLjE1OSw5LjA2OS0xNy41NTksMjIuNTExLTE3LjU1OSwzNi44NzcgMCwxNS41NjUgNy42NjUsMzAuMTU4IDIwLjUwNCwzOS4wMzcgMi4yMjIsMS41MzYgMy40OTYsMy44MTIgMy40OTYsNi4yNDR2My43OGMwLDQuMTAyLTMuMzM3LDcuNDM4LTcuNDM4LDcuNDM4aC03My41NjJ2LTczLjU2MmMwLTEyLjM3Mi0xMC4wNjUtMjIuNDM3LTIyLjQzOC0yMi40MzdoLTMuNzhjLTcuMzIsMC0xNC4yNjcsMy43MjUtMTguNTgyLDkuOTY0LTYuMDc4LDguNzg5LTE2LjA1OSwxNC4wMzYtMjYuNywxNC4wMzYtOS44MywwLTE5LjAyOC00LjM4MS0yNS4yMzctMTIuMDIxLTYuMjk5LTcuNzUtOC42MTQtMTcuNTQyLTYuNTItMjcuNTcxIDIuNjA4LTEyLjQ4OSAxMy4yNzUtMjIuNzMxIDI1Ljk0LTI0LjkwNiAxMi42NjgtMi4xNzkgMjUuMDczLDIuOTM3IDMyLjM3OSwxMy4zMzkgNC41MzYsNi40NTYgMTEuMzc4LDEwLjE1OSAxOC43NzQsMTAuMTU5aDMuNzI2YzEyLjM3MywwIDIyLjQzOC0xMC4wNjUgMjIuNDM4LTIyLjQzOHYtNjUuMDYyYzAtNC42ODcgMy44MTMtOC41IDguNS04LjV6bS0yMzIuNSw4LjVjMC00LjY4NyAzLjgxMy04LjUgOC41LTguNWgxOTJjNC42ODcsMCA4LjUsMy44MTMgOC41LDguNXY2NS4wNjJjMCw0LjEwMi0zLjMzNiw3LjQzOC03LjQzOCw3LjQzOGgtMy43MjZjLTIuNDQyLDAtNC44MTEtMS4zNzgtNi40OTgtMy43OC0xMC42NzMtMTUuMTk2LTI4Ljc1My0yMi42NzMtNDcuMTk0LTE5LjUwMS0xOC44ODIsMy4yNDItMzQuMTg3LDE3Ljk2LTM4LjA4NSwzNi42MjMtMi45OTIsMTQuMzI1IDAuNDk0LDI4Ljk0IDkuNTYzLDQwLjA5OSA5LjA3LDExLjE1OSAyMi41MTEsMTcuNTU5IDM2Ljg3OCwxNy41NTkgMTUuNTY1LDAgMzAuMTU5LTcuNjY1IDM5LjAzNy0yMC41MDQgMS41MzctMi4yMjIgMy44MTMtMy40OTYgNi4yNDUtMy40OTZoMy43OGM0LjEwMiwwIDcuNDM4LDMuMzM3IDcuNDM4LDcuNDM4djczLjU2MmgtNzMuNTYyYy0xMi4zNzMsMC0yMi40MzgsMTAuMDY1LTIyLjQzOCwyMi40Mzh2My43OGMwLDcuMzIxIDMuNzI1LDE0LjI2OCA5Ljk2NCwxOC41ODIgOC43ODksNi4wNzggMTQuMDM2LDE2LjA1OSAxNC4wMzYsMjYuNyAwLDkuODMtNC4zODEsMTkuMDI5LTEyLjAyMSwyNS4yMzctNy43NSw2LjI5OC0xNy41NDEsOC42MTUtMjcuNTcyLDYuNTE5LTEyLjQ4OC0yLjYwNy0yMi43My0xMy4yNzQtMjQuOTA2LTI1Ljk0LTIuMTc1LTEyLjY2NSAyLjkzNi0yNS4wNzIgMTMuMzM5LTMyLjM3OSA2LjQ1Ni00LjUzNSAxMC4xNTktMTEuMzc4IDEwLjE1OS0xOC43NzN2LTMuNzI1YzAuMDAxLTEyLjM3NC0xMC4wNjQtMjIuNDM5LTIyLjQzNy0yMi40MzloLTY1LjA2MmMtNC42ODcsMC04LjUtMy44MTMtOC41LTguNXYtMTkyem0yMDAuNSw0MjQuNWgtMTkyYy00LjY4NywwLTguNS0zLjgxMy04LjUtOC41di0xOTJjMC00LjY4NyAzLjgxMy04LjUgOC41LTguNWg2NS4wNjJjNC4xMDIsMCA3LjQzOCwzLjMzNyA3LjQzOCw3LjQzOHYzLjcyNWMwLDIuNDQyLTEuMzc4LDQuODExLTMuNzgxLDYuNDk4LTE1LjE5NiwxMC42NzQtMjIuNjY4LDI4Ljc1Ny0xOS41MDEsNDcuMTkzIDMuMjQ0LDE4Ljg4MyAxNy45NjIsMzQuMTg4IDM2LjYyMywzOC4wODUgMy4zNjQsMC43MDIgNi43NDIsMS4wNDggMTAuMDg5LDEuMDQ4IDEwLjkwOCwwIDIxLjQ3MS0zLjY3IDMwLjAwOS0xMC42MDkgMTEuMTYxLTkuMDY5IDE3LjU2MS0yMi41MTEgMTcuNTYxLTM2Ljg3OCAwLTE1LjU2NS03LjY2Ni0zMC4xNTktMjAuNTA1LTM5LjAzNy0yLjIyMS0xLjUzNi0zLjQ5NS0zLjgxMi0zLjQ5NS02LjI0NHYtMy43OGMwLTQuMTAyIDMuMzM2LTcuNDM4IDcuNDM4LTcuNDM4aDczLjU2MnY3My41NjJjMCwxMi4zNzIgMTAuMDY2LDIyLjQzNyAyMi40MzgsMjIuNDM3aDMuNzI1YzcuMzk2LDAgMTQuMjM5LTMuNzAzIDE4Ljc3My0xMC4xNiA3LjMwOC0xMC40MDMgMTkuNzE0LTE1LjUxMyAzMi4zOC0xMy4zMzggMTIuNjY2LDIuMTc2IDIzLjMzMywxMi40MTggMjUuOTQsMjQuOTA3IDIuMDk1LDEwLjAyOS0wLjIyMSwxOS44MjEtNi41MiwyNy41NzEtNi4yMDgsNy42MzktMTUuNDA2LDEyLjAyLTI1LjIzNiwxMi4wMi0xMC42NDEsMC0yMC42MjItNS4yNDctMjYuNy0xNC4wMzctNC4zMTUtNi4yMzgtMTEuMjYxLTkuOTYzLTE4LjU4Mi05Ljk2M2gtMy43OGMtMTIuMzcyLDAtMjIuNDM4LDEwLjA2NS0yMi40MzgsMjIuNDM4djY1LjA2MmMwLDQuNjg3LTMuODEzLDguNS04LjUsOC41em0yMzIuNS04LjVjMCw0LjY4Ny0zLjgxMyw4LjUtOC41LDguNWgtMTkyYy00LjY4NywwLTguNS0zLjgxMy04LjUtOC41di02NS4wNjJjMC00LjEwMiAzLjMzNy03LjQzOCA3LjQzOC03LjQzOGgzLjc4YzIuNDMyLDAgNC43MDgsMS4yNzQgNi4yNDQsMy40OTUgOC44NzksMTIuODQgMjMuNDczLDIwLjUwNSAzOS4wMzgsMjAuNTA1IDE0LjM2NiwwIDI3LjgwOC02LjQgMzYuODc3LTE3LjU2IDkuMDY5LTExLjE1NyAxMi41NTQtMjUuNzcyIDkuNTYzLTQwLjA5OC0zLjg5Ny0xOC42NjItMTkuMjAxLTMzLjM4LTM4LjA4My0zNi42MjQtMTguNDM5LTMuMTc2LTM2LjUyMSw0LjMwNC00Ny4xOTUsMTkuNS0xLjY4OCwyLjQwMy00LjA1NiwzLjc4MS02LjQ5OSwzLjc4MWgtMy43MjVjLTQuMTAyLDAtNy40MzgtMy4zMzctNy40MzgtNy40Mzh2LTczLjU2MWg3My41NjJjMTIuMzcyLDAgMjIuNDM4LTEwLjA2NSAyMi40MzgtMjIuNDM4di0zLjc4YzAtNy4zMjEtMy43MjUtMTQuMjY4LTkuOTY0LTE4LjU4Mi04Ljc4OS02LjA3OC0xNC4wMzYtMTYuMDU5LTE0LjAzNi0yNi43IDAtOS44MyA0LjM4MS0xOS4wMjggMTIuMDItMjUuMjM2IDcuNzUtNi4zIDE3LjU0My04LjYxNCAyNy41NzEtNi41MjEgMTIuNDg5LDIuNjA4IDIyLjczMSwxMy4yNzUgMjQuOTA3LDI1Ljk0IDIuMTc2LDEyLjY2NS0yLjkzNSwyNS4wNzMtMTMuMzM5LDMyLjM4LTYuNDU2LDQuNTM2LTEwLjE1OSwxMS4zNzgtMTAuMTU5LDE4Ljc3NHYzLjcyNWMwLDEyLjM3MyAxMC4wNjYsMjIuNDM4IDIyLjQzOCwyMi40MzhoNjUuMDYyYzQuNjg3LDAgOC41LDMuODEzIDguNSw4LjV2MTkyeiIvPiYjeGE7ICA8L2c+JiN4YTs8L3N2Zz4=;" parent="prbf6PAcEB-vE0bwNeir-12" vertex="1">
          <mxGeometry x="15" width="30" height="30" as="geometry" />
        </mxCell>
        <mxCell id="prbf6PAcEB-vE0bwNeir-16" value="" style="group" parent="1" vertex="1" connectable="0">
          <mxGeometry x="540" y="170" width="140" height="80" as="geometry" />
        </mxCell>
        <mxCell id="pu2SGln_cWuoecxfrxfS-2" value="&lt;span style=&quot;background-color: initial; font-family: &amp;quot;Courier New&amp;quot;; font-size: 10px;&quot;&gt;git.tudominio.com&lt;/span&gt;&lt;br style=&quot;font-size: 10px;&quot;&gt;&lt;div style=&quot;font-size: 10px;&quot;&gt;&lt;span style=&quot;font-family: &amp;quot;Courier New&amp;quot;; background-color: initial; font-size: 10px;&quot;&gt;grafana.tudominio.com&lt;/span&gt;&lt;/div&gt;&lt;div style=&quot;font-size: 10px;&quot;&gt;&lt;span style=&quot;font-family: &amp;quot;Courier New&amp;quot;; background-color: initial; font-size: 10px;&quot;&gt;ha.tudominio.com&lt;/span&gt;&lt;/div&gt;" style="shape=parallelogram;perimeter=parallelogramPerimeter;whiteSpace=wrap;html=1;fixedSize=1;size=0;rounded=1;fontSize=10;strokeWidth=0.6;labelPosition=center;verticalLabelPosition=middle;align=left;verticalAlign=middle;sketch=1;curveFitting=1;jiggle=1;" parent="prbf6PAcEB-vE0bwNeir-16" vertex="1">
          <mxGeometry x="10" y="35" width="130" height="45" as="geometry" />
        </mxCell>
        <mxCell id="prbf6PAcEB-vE0bwNeir-9" value="" style="group" parent="prbf6PAcEB-vE0bwNeir-16" vertex="1" connectable="0">
          <mxGeometry width="60" height="57" as="geometry" />
        </mxCell>
        <mxCell id="prbf6PAcEB-vE0bwNeir-10" value="&lt;div style=&quot;font-size: 7px;&quot;&gt;&lt;font style=&quot;font-size: 7px;&quot; face=&quot;Courier New&quot;&gt;&lt;b&gt;DNS cdmon&lt;/b&gt;&lt;/font&gt;&lt;/div&gt;" style="rounded=1;whiteSpace=wrap;html=1;fontSize=7;sketch=1;curveFitting=1;jiggle=1;strokeWidth=0.5;" parent="prbf6PAcEB-vE0bwNeir-9" vertex="1">
          <mxGeometry y="27" width="60" height="13" as="geometry" />
        </mxCell>
        <mxCell id="prbf6PAcEB-vE0bwNeir-11" value="" style="shape=image;verticalLabelPosition=bottom;labelBackgroundColor=default;verticalAlign=top;aspect=fixed;imageAspect=0;image=data:image/svg+xml,PHN2ZyB4bWxucz0iaHR0cDovL3d3dy53My5vcmcvMjAwMC9zdmciIHZpZXdCb3g9IjAgMCAxNTAgMTUwIiB2ZXJzaW9uPSIxLjEiIHdpZHRoPSIxMDAlIiBzdHlsZT0iZmlsbC1ydWxlOmV2ZW5vZGQ7Y2xpcC1ydWxlOmV2ZW5vZGQ7c3Ryb2tlLWxpbmVjYXA6cm91bmQ7c3Ryb2tlLWxpbmVqb2luOnJvdW5kOyIgaGVpZ2h0PSIxMDAlIj4mI3hhOyAgPGRlZnM+JiN4YTsgICAgJiN4YTsgIDwvZGVmcz4mI3hhOyAgPHJlY3QgeT0iMTUiIHg9IjE1IiBzdHlsZT0iZmlsbDogbm9uZTsgc3Ryb2tlLXdpZHRoOiAwLjJweDsgc3Ryb2tlOiByZ2IoODQsIDg0LCA4NCk7IHBvaW50ZXItZXZlbnRzOiBub25lOyB2aXNpYmlsaXR5OiBoaWRkZW47IiBoZWlnaHQ9IjEyMCIgd2lkdGg9IjEyMCIvPiYjeGE7ICA8ZyB0cmFuc2Zvcm09Im1hdHJpeCgwLjI1OTE3OSwgMCwgMCwgMC4yNTkxNzksIDE2LjM0MzkzOSwgMTUpIiBzdHlsZT0iIj4mI3hhOyAgICA8cGF0aCBkPSJtNDYzLDIzLjVjMC0xMi45NTgtMTAuNTQyLTIzLjUtMjMuNS0yMy41aC0xOTJjLTYuMTc3LDAtMTEuODAxLDIuMzk5LTE2LDYuMzEtNC4xOTktMy45MTEtOS44MjMtNi4zMS0xNi02LjMxaC0xOTJjLTEyLjk1OCwwLTIzLjUsMTAuNTQyLTIzLjUsMjMuNXYxOTJjMCw2LjE3NyAyLjM5OSwxMS44MDEgNi4zMSwxNi0zLjkxMSw0LjE5OS02LjMxLDkuODIzLTYuMzEsMTZ2MTkyYzAsMTIuOTU4IDEwLjU0MiwyMy41IDIzLjUsMjMuNWgxOTJjNi4xNzcsMCAxMS44MDEtMi4zOTkgMTYtNi4zMSA0LjE5OSwzLjkxMSA5LjgyMyw2LjMxIDE2LDYuMzFoMTkyYzEyLjk1OCwwIDIzLjUtMTAuNTQyIDIzLjUtMjMuNXYtMTkyYzAtNi4xNzctMi4zOTktMTEuODAxLTYuMzEtMTYgMy45MTEtNC4xOTkgNi4zMS05LjgyMyA2LjMxLTE2di0xOTJ6bS0yMTUuNS04LjVoMTkyYzQuNjg3LDAgOC41LDMuODEzIDguNSw4LjV2MTkyYzAsNC42ODctMy44MTMsOC41LTguNSw4LjVoLTY1LjA2MmMtNC4xMDIsMC03LjQzOC0zLjMzNy03LjQzOC03LjQzOHYtMy43MjVjMC0yLjQ0MiAxLjM3OC00LjgxMSAzLjc4MS02LjQ5OCAxNS4xOTYtMTAuNjc0IDIyLjY2OC0yOC43NTggMTkuNS00Ny4xOTUtMy4yNDQtMTguODgxLTE3Ljk2MS0zNC4xODYtMzYuNjI0LTM4LjA4NC0xNC4zMjMtMi45OTItMjguOTQsMC40OTUtNDAuMDk4LDkuNTYzLTExLjE1OSw5LjA2OS0xNy41NTksMjIuNTExLTE3LjU1OSwzNi44NzcgMCwxNS41NjUgNy42NjUsMzAuMTU4IDIwLjUwNCwzOS4wMzcgMi4yMjIsMS41MzYgMy40OTYsMy44MTIgMy40OTYsNi4yNDR2My43OGMwLDQuMTAyLTMuMzM3LDcuNDM4LTcuNDM4LDcuNDM4aC03My41NjJ2LTczLjU2MmMwLTEyLjM3Mi0xMC4wNjUtMjIuNDM3LTIyLjQzOC0yMi40MzdoLTMuNzhjLTcuMzIsMC0xNC4yNjcsMy43MjUtMTguNTgyLDkuOTY0LTYuMDc4LDguNzg5LTE2LjA1OSwxNC4wMzYtMjYuNywxNC4wMzYtOS44MywwLTE5LjAyOC00LjM4MS0yNS4yMzctMTIuMDIxLTYuMjk5LTcuNzUtOC42MTQtMTcuNTQyLTYuNTItMjcuNTcxIDIuNjA4LTEyLjQ4OSAxMy4yNzUtMjIuNzMxIDI1Ljk0LTI0LjkwNiAxMi42NjgtMi4xNzkgMjUuMDczLDIuOTM3IDMyLjM3OSwxMy4zMzkgNC41MzYsNi40NTYgMTEuMzc4LDEwLjE1OSAxOC43NzQsMTAuMTU5aDMuNzI2YzEyLjM3MywwIDIyLjQzOC0xMC4wNjUgMjIuNDM4LTIyLjQzOHYtNjUuMDYyYzAtNC42ODcgMy44MTMtOC41IDguNS04LjV6bS0yMzIuNSw4LjVjMC00LjY4NyAzLjgxMy04LjUgOC41LTguNWgxOTJjNC42ODcsMCA4LjUsMy44MTMgOC41LDguNXY2NS4wNjJjMCw0LjEwMi0zLjMzNiw3LjQzOC03LjQzOCw3LjQzOGgtMy43MjZjLTIuNDQyLDAtNC44MTEtMS4zNzgtNi40OTgtMy43OC0xMC42NzMtMTUuMTk2LTI4Ljc1My0yMi42NzMtNDcuMTk0LTE5LjUwMS0xOC44ODIsMy4yNDItMzQuMTg3LDE3Ljk2LTM4LjA4NSwzNi42MjMtMi45OTIsMTQuMzI1IDAuNDk0LDI4Ljk0IDkuNTYzLDQwLjA5OSA5LjA3LDExLjE1OSAyMi41MTEsMTcuNTU5IDM2Ljg3OCwxNy41NTkgMTUuNTY1LDAgMzAuMTU5LTcuNjY1IDM5LjAzNy0yMC41MDQgMS41MzctMi4yMjIgMy44MTMtMy40OTYgNi4yNDUtMy40OTZoMy43OGM0LjEwMiwwIDcuNDM4LDMuMzM3IDcuNDM4LDcuNDM4djczLjU2MmgtNzMuNTYyYy0xMi4zNzMsMC0yMi40MzgsMTAuMDY1LTIyLjQzOCwyMi40Mzh2My43OGMwLDcuMzIxIDMuNzI1LDE0LjI2OCA5Ljk2NCwxOC41ODIgOC43ODksNi4wNzggMTQuMDM2LDE2LjA1OSAxNC4wMzYsMjYuNyAwLDkuODMtNC4zODEsMTkuMDI5LTEyLjAyMSwyNS4yMzctNy43NSw2LjI5OC0xNy41NDEsOC42MTUtMjcuNTcyLDYuNTE5LTEyLjQ4OC0yLjYwNy0yMi43My0xMy4yNzQtMjQuOTA2LTI1Ljk0LTIuMTc1LTEyLjY2NSAyLjkzNi0yNS4wNzIgMTMuMzM5LTMyLjM3OSA2LjQ1Ni00LjUzNSAxMC4xNTktMTEuMzc4IDEwLjE1OS0xOC43NzN2LTMuNzI1YzAuMDAxLTEyLjM3NC0xMC4wNjQtMjIuNDM5LTIyLjQzNy0yMi40MzloLTY1LjA2MmMtNC42ODcsMC04LjUtMy44MTMtOC41LTguNXYtMTkyem0yMDAuNSw0MjQuNWgtMTkyYy00LjY4NywwLTguNS0zLjgxMy04LjUtOC41di0xOTJjMC00LjY4NyAzLjgxMy04LjUgOC41LTguNWg2NS4wNjJjNC4xMDIsMCA3LjQzOCwzLjMzNyA3LjQzOCw3LjQzOHYzLjcyNWMwLDIuNDQyLTEuMzc4LDQuODExLTMuNzgxLDYuNDk4LTE1LjE5NiwxMC42NzQtMjIuNjY4LDI4Ljc1Ny0xOS41MDEsNDcuMTkzIDMuMjQ0LDE4Ljg4MyAxNy45NjIsMzQuMTg4IDM2LjYyMywzOC4wODUgMy4zNjQsMC43MDIgNi43NDIsMS4wNDggMTAuMDg5LDEuMDQ4IDEwLjkwOCwwIDIxLjQ3MS0zLjY3IDMwLjAwOS0xMC42MDkgMTEuMTYxLTkuMDY5IDE3LjU2MS0yMi41MTEgMTcuNTYxLTM2Ljg3OCAwLTE1LjU2NS03LjY2Ni0zMC4xNTktMjAuNTA1LTM5LjAzNy0yLjIyMS0xLjUzNi0zLjQ5NS0zLjgxMi0zLjQ5NS02LjI0NHYtMy43OGMwLTQuMTAyIDMuMzM2LTcuNDM4IDcuNDM4LTcuNDM4aDczLjU2MnY3My41NjJjMCwxMi4zNzIgMTAuMDY2LDIyLjQzNyAyMi40MzgsMjIuNDM3aDMuNzI1YzcuMzk2LDAgMTQuMjM5LTMuNzAzIDE4Ljc3My0xMC4xNiA3LjMwOC0xMC40MDMgMTkuNzE0LTE1LjUxMyAzMi4zOC0xMy4zMzggMTIuNjY2LDIuMTc2IDIzLjMzMywxMi40MTggMjUuOTQsMjQuOTA3IDIuMDk1LDEwLjAyOS0wLjIyMSwxOS44MjEtNi41MiwyNy41NzEtNi4yMDgsNy42MzktMTUuNDA2LDEyLjAyLTI1LjIzNiwxMi4wMi0xMC42NDEsMC0yMC42MjItNS4yNDctMjYuNy0xNC4wMzctNC4zMTUtNi4yMzgtMTEuMjYxLTkuOTYzLTE4LjU4Mi05Ljk2M2gtMy43OGMtMTIuMzcyLDAtMjIuNDM4LDEwLjA2NS0yMi40MzgsMjIuNDM4djY1LjA2MmMwLDQuNjg3LTMuODEzLDguNS04LjUsOC41em0yMzIuNS04LjVjMCw0LjY4Ny0zLjgxMyw4LjUtOC41LDguNWgtMTkyYy00LjY4NywwLTguNS0zLjgxMy04LjUtOC41di02NS4wNjJjMC00LjEwMiAzLjMzNy03LjQzOCA3LjQzOC03LjQzOGgzLjc4YzIuNDMyLDAgNC43MDgsMS4yNzQgNi4yNDQsMy40OTUgOC44NzksMTIuODQgMjMuNDczLDIwLjUwNSAzOS4wMzgsMjAuNTA1IDE0LjM2NiwwIDI3LjgwOC02LjQgMzYuODc3LTE3LjU2IDkuMDY5LTExLjE1NyAxMi41NTQtMjUuNzcyIDkuNTYzLTQwLjA5OC0zLjg5Ny0xOC42NjItMTkuMjAxLTMzLjM4LTM4LjA4My0zNi42MjQtMTguNDM5LTMuMTc2LTM2LjUyMSw0LjMwNC00Ny4xOTUsMTkuNS0xLjY4OCwyLjQwMy00LjA1NiwzLjc4MS02LjQ5OSwzLjc4MWgtMy43MjVjLTQuMTAyLDAtNy40MzgtMy4zMzctNy40MzgtNy40Mzh2LTczLjU2MWg3My41NjJjMTIuMzcyLDAgMjIuNDM4LTEwLjA2NSAyMi40MzgtMjIuNDM4di0zLjc4YzAtNy4zMjEtMy43MjUtMTQuMjY4LTkuOTY0LTE4LjU4Mi04Ljc4OS02LjA3OC0xNC4wMzYtMTYuMDU5LTE0LjAzNi0yNi43IDAtOS44MyA0LjM4MS0xOS4wMjggMTIuMDItMjUuMjM2IDcuNzUtNi4zIDE3LjU0My04LjYxNCAyNy41NzEtNi41MjEgMTIuNDg5LDIuNjA4IDIyLjczMSwxMy4yNzUgMjQuOTA3LDI1Ljk0IDIuMTc2LDEyLjY2NS0yLjkzNSwyNS4wNzMtMTMuMzM5LDMyLjM4LTYuNDU2LDQuNTM2LTEwLjE1OSwxMS4zNzgtMTAuMTU5LDE4Ljc3NHYzLjcyNWMwLDEyLjM3MyAxMC4wNjYsMjIuNDM4IDIyLjQzOCwyMi40MzhoNjUuMDYyYzQuNjg3LDAgOC41LDMuODEzIDguNSw4LjV2MTkyeiIvPiYjeGE7ICA8L2c+JiN4YTs8L3N2Zz4=;" parent="prbf6PAcEB-vE0bwNeir-9" vertex="1">
          <mxGeometry x="15" width="30" height="30" as="geometry" />
        </mxCell>
        <mxCell id="prbf6PAcEB-vE0bwNeir-17" value="" style="rounded=0;orthogonalLoop=1;jettySize=auto;html=1;startArrow=classic;startFill=1;startSize=6;endSize=2;endArrow=none;endFill=0;exitX=0.8555;exitY=0.145;exitDx=0;exitDy=0;sketch=1;curveFitting=1;jiggle=1;entryX=0.31;entryY=0.8;entryDx=0;entryDy=0;entryPerimeter=0;strokeWidth=0.5;exitPerimeter=0;sourcePerimeterSpacing=5;" parent="1" source="prbf6PAcEB-vE0bwNeir-22" target="prbf6PAcEB-vE0bwNeir-15" edge="1">
          <mxGeometry relative="1" as="geometry">
            <mxPoint x="268.56999999999994" y="347.41999999999996" as="sourcePoint" />
            <mxPoint x="455" y="228" as="targetPoint" />
          </mxGeometry>
        </mxCell>
        <mxCell id="prbf6PAcEB-vE0bwNeir-19" value="" style="endArrow=none;html=1;entryX=0.5;entryY=1;entryDx=0;entryDy=0;curved=1;strokeColor=#990000;strokeWidth=2;sketch=1;curveFitting=1;jiggle=1;exitX=0.5;exitY=0;exitDx=0;exitDy=0;startArrow=classicThin;startFill=1;" parent="1" source="pu2SGln_cWuoecxfrxfS-16" target="oq7CgVc_mKagQm36tLaV-17" edge="1">
          <mxGeometry width="50" height="50" relative="1" as="geometry">
            <mxPoint x="289" y="520" as="sourcePoint" />
            <mxPoint x="216" y="182" as="targetPoint" />
            <Array as="points">
              <mxPoint x="270" y="330" />
            </Array>
          </mxGeometry>
        </mxCell>
        <mxCell id="oq7CgVc_mKagQm36tLaV-17" value="&lt;div style=&quot;&quot;&gt;&lt;font style=&quot;font-size: 9px;&quot; face=&quot;Verdana&quot;&gt;Los puertos solo se abren mediante la técnica de Llamar a casa (knockd)&lt;/font&gt;&lt;/div&gt;" style="shape=parallelogram;perimeter=parallelogramPerimeter;whiteSpace=wrap;html=1;fixedSize=1;size=0;rounded=1;fontSize=11;strokeWidth=0.6;labelPosition=center;verticalLabelPosition=middle;align=center;verticalAlign=middle;fillColor=#f8cecc;strokeColor=#b85450;" parent="1" vertex="1">
          <mxGeometry x="180" y="260" width="125" height="50" as="geometry" />
        </mxCell>
        <mxCell id="prbf6PAcEB-vE0bwNeir-20" value="" style="shape=parallelogram;perimeter=parallelogramPerimeter;whiteSpace=wrap;html=1;fixedSize=1;size=9.999999999999886;rounded=1;fontSize=11;strokeWidth=1;sketch=1;curveFitting=1;jiggle=2;fillColor=#F2FFF2;strokeColor=#82b366;fillStyle=solid;arcSize=14;" parent="1" vertex="1">
          <mxGeometry x="195" y="347.42" width="140" height="62.58" as="geometry" />
        </mxCell>
        <mxCell id="prbf6PAcEB-vE0bwNeir-21" value="&lt;b style=&quot;border-color: var(--border-color); color: rgb(0, 0, 0); font-family: Verdana; font-size: 9px; font-style: normal; font-variant-ligatures: normal; font-variant-caps: normal; letter-spacing: normal; orphans: 2; text-indent: 0px; text-transform: none; widows: 2; word-spacing: 0px; -webkit-text-stroke-width: 0px; background-color: initial; text-decoration-thickness: initial; text-decoration-style: initial; text-decoration-color: initial;&quot;&gt;Router&lt;br style=&quot;font-size: 9px;&quot;&gt;&lt;/b&gt;&lt;b style=&quot;border-color: var(--border-color); color: rgb(0, 0, 0); font-family: Verdana; font-size: 9px; font-style: normal; font-variant-ligatures: normal; font-variant-caps: normal; letter-spacing: normal; orphans: 2; text-indent: 0px; text-transform: none; widows: 2; word-spacing: 0px; -webkit-text-stroke-width: 0px; background-color: initial; text-decoration-thickness: initial; text-decoration-style: initial; text-decoration-color: initial;&quot;&gt;Firewall&amp;nbsp;&lt;/b&gt;&lt;b style=&quot;border-color: var(--border-color); color: rgb(0, 0, 0); font-family: Verdana; font-size: 9px; font-style: normal; font-variant-ligatures: normal; font-variant-caps: normal; letter-spacing: normal; orphans: 2; text-indent: 0px; text-transform: none; widows: 2; word-spacing: 0px; -webkit-text-stroke-width: 0px; background-color: initial; text-decoration-thickness: initial; text-decoration-style: initial; text-decoration-color: initial;&quot;&gt;(VM)&lt;/b&gt;" style="text;whiteSpace=wrap;html=1;align=center;fontSize=9;" parent="1" vertex="1">
          <mxGeometry x="240.27999999999997" y="374.85999999999996" width="100" height="44.14" as="geometry" />
        </mxCell>
        <mxCell id="prbf6PAcEB-vE0bwNeir-22" value="" style="points=[[0.5,0,0],[1,0.5,0],[0.5,1,0],[0,0.5,0],[0.145,0.145,0],[0.8555,0.145,0],[0.855,0.8555,0],[0.145,0.855,0]];verticalLabelPosition=middle;html=1;verticalAlign=middle;aspect=fixed;align=right;pointerEvents=1;shape=mxgraph.cisco19.rect;prIcon=router;fillColor=#d5e8d4;strokeColor=#82b366;fontSize=15;fontFamily=Verdana;spacing=5;labelPosition=left;" parent="1" vertex="1">
          <mxGeometry x="240.28" y="331" width="43.86" height="43.86" as="geometry" />
        </mxCell>
        <mxCell id="UKPdN4tOZPO0l4LbEk4b-1" value="&lt;span style=&quot;border-color: var(--border-color); font-size: 9px; text-align: left; background-color: initial;&quot;&gt;&lt;font style=&quot;border-color: var(--border-color); font-size: 9px;&quot; face=&quot;Courier New&quot;&gt;Gitea&lt;br&gt;&lt;b&gt;git@vm-git.tudominio.com:22&lt;/b&gt;&lt;/font&gt;&lt;/span&gt;" style="rounded=1;whiteSpace=wrap;html=1;sketch=1;curveFitting=1;jiggle=2;fillColor=#DBFFFB;strokeColor=#6c8ebf;fillStyle=solid;fontSize=9;" vertex="1" parent="1">
          <mxGeometry x="400" y="530" width="170" height="30" as="geometry" />
        </mxCell>
        <mxCell id="UKPdN4tOZPO0l4LbEk4b-3" value="" style="edgeStyle=none;orthogonalLoop=1;jettySize=auto;html=1;rounded=0;entryX=0;entryY=0.5;entryDx=0;entryDy=0;" edge="1" parent="1" target="UKPdN4tOZPO0l4LbEk4b-1">
          <mxGeometry width="80" relative="1" as="geometry">
            <mxPoint x="290" y="544.68" as="sourcePoint" />
            <mxPoint x="370" y="544.68" as="targetPoint" />
            <Array as="points" />
          </mxGeometry>
        </mxCell>
      </root>
    </mxGraphModel>
  </diagram>
</mxfile>
